# xmcd
#
# Track frame offsets:
#	150
#	23525
#	39615
#	53995
#	73962
#	95040
#	113200
#	129457
#	153355
#	174312
#	190735
#	205630
#	225290
#	256035
#
# Disc length: 3782 seconds
#
# Revision: 0
# Processed by: cddbd v1.4PL0 Copyright (c) Steve Scherf et al.
# Submitted via: EasyCDDAExtractor 4.6.9.1
#
DISCID=b10ec40e
DTITLE=Tim Rose - Haunted
DYEAR=1997
DGENRE=Blues
TTITLE0=(Hey Joe) Blue Steel '44
TTITLE1=Give Your Lovin' to the Livin'
TTITLE2=He Never Was a Hero
TTITLE3=Natural Thing
TTITLE4=A Mite Confused?
TTITLE5=I Ain't Had No Lovin'
TTITLE6=Because You're Rich
TTITLE7=The Dealer
TTITLE8=Come Away, Melinda
TTITLE9=Haunted
TTITLE10=Four Dancin' Queens
TTITLE11=Hanging Tree
TTITLE12=I Sold It With My Car
TTITLE13=Morning Dew
EXTD=
EXTT0=
EXTT1=
EXTT2=
EXTT3=
EXTT4=
EXTT5=
EXTT6=
EXTT7=
EXTT8=
EXTT9=
EXTT10=
EXTT11=
EXTT12=
EXTT13=
PLAYORDER=
